<svg xmlns="http://www.w3.org/2000/svg" width="1920" height="1460" viewBox="0 0 1920 1460"><rect width="1920" height="1460" fill="#fbfaf7"/><defs><marker id="msolid6b6b7a" markerWidth="9" markerHeight="9" refX="7" refY="4.5" orient="auto"><path d="M0,0 L8,4.5 L0,9 Z" fill="#6b6b7a"/></marker><marker id="mopen6b6b7a" markerWidth="10" markerHeight="10" refX="8" refY="5" orient="auto"><path d="M1,1 L8,5 L1,9" fill="none" stroke="#6b6b7a" stroke-width="1.6"/></marker><marker id="mstart6b6b7a" markerWidth="9" markerHeight="9" refX="1" refY="4.5" orient="auto"><path d="M8,0 L0,4.5 L8,9 Z" fill="#6b6b7a"/></marker><marker id="msoliddd2e26" markerWidth="9" markerHeight="9" refX="7" refY="4.5" orient="auto"><path d="M0,0 L8,4.5 L0,9 Z" fill="#dd2e26"/></marker><marker id="mopendd2e26" markerWidth="10" markerHeight="10" refX="8" refY="5" orient="auto"><path d="M1,1 L8,5 L1,9" fill="none" stroke="#dd2e26" stroke-width="1.6"/></marker><marker id="mstartdd2e26" markerWidth="9" markerHeight="9" refX="1" refY="4.5" orient="auto"><path d="M8,0 L0,4.5 L8,9 Z" fill="#dd2e26"/></marker><marker id="msolid2a2765" markerWidth="9" markerHeight="9" refX="7" refY="4.5" orient="auto"><path d="M0,0 L8,4.5 L0,9 Z" fill="#2a2765"/></marker><marker id="mopen2a2765" markerWidth="10" markerHeight="10" refX="8" refY="5" orient="auto"><path d="M1,1 L8,5 L1,9" fill="none" stroke="#2a2765" stroke-width="1.6"/></marker><marker id="mstart2a2765" markerWidth="9" markerHeight="9" refX="1" refY="4.5" orient="auto"><path d="M8,0 L0,4.5 L8,9 Z" fill="#2a2765"/></marker><marker id="msolid345faa" markerWidth="9" markerHeight="9" refX="7" refY="4.5" orient="auto"><path d="M0,0 L8,4.5 L0,9 Z" fill="#345faa"/></marker><marker id="mopen345faa" markerWidth="10" markerHeight="10" refX="8" refY="5" orient="auto"><path d="M1,1 L8,5 L1,9" fill="none" stroke="#345faa" stroke-width="1.6"/></marker><marker id="mstart345faa" markerWidth="9" markerHeight="9" refX="1" refY="4.5" orient="auto"><path d="M8,0 L0,4.5 L8,9 Z" fill="#345faa"/></marker><marker id="msolidc9a50e" markerWidth="9" markerHeight="9" refX="7" refY="4.5" orient="auto"><path d="M0,0 L8,4.5 L0,9 Z" fill="#c9a50e"/></marker><marker id="mopenc9a50e" markerWidth="10" markerHeight="10" refX="8" refY="5" orient="auto"><path d="M1,1 L8,5 L1,9" fill="none" stroke="#c9a50e" stroke-width="1.6"/></marker><marker id="mstartc9a50e" markerWidth="9" markerHeight="9" refX="1" refY="4.5" orient="auto"><path d="M8,0 L0,4.5 L8,9 Z" fill="#c9a50e"/></marker><marker id="msolid12c2ec" markerWidth="9" markerHeight="9" refX="7" refY="4.5" orient="auto"><path d="M0,0 L8,4.5 L0,9 Z" fill="#12c2ec"/></marker><marker id="mopen12c2ec" markerWidth="10" markerHeight="10" refX="8" refY="5" orient="auto"><path d="M1,1 L8,5 L1,9" fill="none" stroke="#12c2ec" stroke-width="1.6"/></marker><marker id="mstart12c2ec" markerWidth="9" markerHeight="9" refX="1" refY="4.5" orient="auto"><path d="M8,0 L0,4.5 L8,9 Z" fill="#12c2ec"/></marker><marker id="msolid0a8baa" markerWidth="9" markerHeight="9" refX="7" refY="4.5" orient="auto"><path d="M0,0 L8,4.5 L0,9 Z" fill="#0a8baa"/></marker><marker id="mopen0a8baa" markerWidth="10" markerHeight="10" refX="8" refY="5" orient="auto"><path d="M1,1 L8,5 L1,9" fill="none" stroke="#0a8baa" stroke-width="1.6"/></marker><marker id="mstart0a8baa" markerWidth="9" markerHeight="9" refX="1" refY="4.5" orient="auto"><path d="M8,0 L0,4.5 L8,9 Z" fill="#0a8baa"/></marker><marker id="msolid9a98a8" markerWidth="9" markerHeight="9" refX="7" refY="4.5" orient="auto"><path d="M0,0 L8,4.5 L0,9 Z" fill="#9a98a8"/></marker><marker id="mopen9a98a8" markerWidth="10" markerHeight="10" refX="8" refY="5" orient="auto"><path d="M1,1 L8,5 L1,9" fill="none" stroke="#9a98a8" stroke-width="1.6"/></marker><marker id="mstart9a98a8" markerWidth="9" markerHeight="9" refX="1" refY="4.5" orient="auto"><path d="M8,0 L0,4.5 L8,9 Z" fill="#9a98a8"/></marker></defs><rect x="40" y="26" width="10" height="44" rx="5" fill="#dd2e26"/><text x="66" y="46" font-size="27" fill="#2a2765" font-weight="bold" text-anchor="start" font-family="Poppins, DejaVu Sans, sans-serif" >ARQUITECTURA CRM — CLUBES TED-ED ARGENTINA</text><text x="66" y="68" font-size="12.5" fill="#6b6b7a" font-weight="normal" text-anchor="start" font-family="Poppins, DejaVu Sans, sans-serif" >Diagrama BPMN · Educabot &gt; Carga Inicial (staging) &gt; Make (F1-F8) &gt; Índices monday &gt; Comunicación · Fundación IQT · Julio 2026</text><circle cx="1730.0" cy="40" r="5.3999999999999995" fill="#ff3d57"/><circle cx="1743.2" cy="40" r="5.3999999999999995" fill="#ffcb00"/><circle cx="1756.4" cy="40" r="5.3999999999999995" fill="#00ca72"/><text x="1770" y="46" font-size="13" fill="#2a2765" font-weight="bold" text-anchor="start" font-family="Poppins, DejaVu Sans, sans-serif" >monday.com</text><rect x="40" y="84" width="1840" height="176" rx="10" fill="#ffffff" stroke="#e7e5ef" stroke-width="1.5"/><rect x="40" y="84" width="34" height="176" rx="10" fill="#6b6b7a" fill-opacity="0.92"/><text x="62" y="172.0" font-size="12.5" fill="#fff" font-weight="bold" text-anchor="middle" font-family="Poppins, DejaVu Sans, sans-serif" transform="rotate(-90 60 172.0)" letter-spacing="2">EDUCABOT</text><text x="86" y="100" font-size="9.5" fill="#6b6b7a" font-weight="bold" text-anchor="start" font-family="Poppins, DejaVu Sans, sans-serif" >Fuente de verdad</text><rect x="40" y="260" width="1840" height="200" rx="10" fill="#ffffff" stroke="#e7e5ef" stroke-width="1.5"/><rect x="40" y="260" width="34" height="200" rx="10" fill="#0a8baa" fill-opacity="0.92"/><text x="62" y="360.0" font-size="12.5" fill="#fff" font-weight="bold" text-anchor="middle" font-family="Poppins, DejaVu Sans, sans-serif" transform="rotate(-90 60 360.0)" letter-spacing="2">CARGA INICIAL</text><text x="86" y="276" font-size="9.5" fill="#6b6b7a" font-weight="bold" text-anchor="start" font-family="Poppins, DejaVu Sans, sans-serif" >Staging · WS Plan de Implementación</text><rect x="40" y="460" width="1840" height="430" rx="10" fill="#ffffff" stroke="#e7e5ef" stroke-width="1.5"/><rect x="40" y="460" width="34" height="430" rx="10" fill="#6d00cc" fill-opacity="0.92"/><text x="62" y="675.0" font-size="12.5" fill="#fff" font-weight="bold" text-anchor="middle" font-family="Poppins, DejaVu Sans, sans-serif" transform="rotate(-90 60 675.0)" letter-spacing="2">MAKE</text><text x="86" y="476" font-size="9.5" fill="#6b6b7a" font-weight="bold" text-anchor="start" font-family="Poppins, DejaVu Sans, sans-serif" >Automatización F1–F8 · org 6543357</text><rect x="40" y="890" width="1840" height="330" rx="10" fill="#ffffff" stroke="#e7e5ef" stroke-width="1.5"/><rect x="40" y="890" width="34" height="330" rx="10" fill="#dd2e26" fill-opacity="0.92"/><text x="62" y="1055.0" font-size="12.5" fill="#fff" font-weight="bold" text-anchor="middle" font-family="Poppins, DejaVu Sans, sans-serif" transform="rotate(-90 60 1055.0)" letter-spacing="2">ÍNDICES CRM</text><text x="86" y="906" font-size="9.5" fill="#6b6b7a" font-weight="bold" text-anchor="start" font-family="Poppins, DejaVu Sans, sans-serif" >WS Desarrollo 15669132</text><rect x="40" y="1220" width="1840" height="160" rx="10" fill="#ffffff" stroke="#e7e5ef" stroke-width="1.5"/><rect x="40" y="1220" width="34" height="160" rx="10" fill="#345faa" fill-opacity="0.92"/><text x="62" y="1300.0" font-size="12.5" fill="#fff" font-weight="bold" text-anchor="middle" font-family="Poppins, DejaVu Sans, sans-serif" transform="rotate(-90 60 1300.0)" letter-spacing="2">COMUNICACIÓN</text><text x="86" y="1236" font-size="9.5" fill="#6b6b7a" font-weight="bold" text-anchor="start" font-family="Poppins, DejaVu Sans, sans-serif" >Gmail + Google Calendar</text><circle cx="150" cy="180" r="21" fill="#fff" stroke="#dd2e26" stroke-width="3"/><text x="150" y="148" font-size="10.5" fill="#2a2765" font-weight="bold" text-anchor="middle" font-family="Poppins, DejaVu Sans, sans-serif" >Alta / edición</text><text x="150" y="220" font-size="9.5" fill="#6b6b7a" font-weight="normal" text-anchor="middle" font-family="Poppins, DejaVu Sans, sans-serif" >inscripciones, escuelas,</text><text x="150" y="231" font-size="9.5" fill="#6b6b7a" font-weight="normal" text-anchor="middle" font-family="Poppins, DejaVu Sans, sans-serif" >clubs y videos</text><rect x="220" y="171.0" width="30.0" height="22.0" rx="7.0" fill="#fff" stroke="#6b6b7a" stroke-width="2"/><circle cx="230.0" cy="181.0" r="3.0" fill="#0a8baa"/><circle cx="240.0" cy="181.0" r="3.0" fill="#0a8baa"/><path d="M 235.0 171.0 L 235.0 166.0" stroke="#6b6b7a" stroke-width="2" stroke-linecap="round"/><circle cx="235.0" cy="165.0" r="2.5" fill="#dd2e26"/><path d="M 171 180 L 300 180" stroke="#6b6b7a" stroke-width="2.2" fill="none"  marker-end="url(#msolid6b6b7a)" stroke-linecap="round"/><rect x="300" y="146" width="330" height="68" rx="10" fill="#fff" stroke="#6b6b7a" stroke-width="2.5"/><rect x="300" y="146" width="5" height="68" rx="2.5" fill="#6b6b7a"/><text x="314" y="167" font-size="12.5" fill="#2a2765" font-weight="bold" text-anchor="start" font-family="Poppins, DejaVu Sans, sans-serif" >Exportación de datos a monday</text><text x="314" y="184" font-size="10" fill="#6b6b7a" font-weight="normal" text-anchor="start" font-family="Poppins, DejaVu Sans, sans-serif" >vuelca datos en las tablas de Carga Inicial</text><text x="314" y="196" font-size="10" fill="#6b6b7a" font-weight="normal" text-anchor="start" font-family="Poppins, DejaVu Sans, sans-serif" >(workspace Plan de Implementación)</text><path d="M 380 214 C 380 266.0, 240 266.0, 240 318" stroke="#345faa" stroke-width="2.2" fill="none"  marker-end="url(#msolid345faa)" stroke-linecap="round"/><rect x="268.25" y="257.0" width="83.5" height="16" rx="8" fill="#fffffff0" stroke="#345faa" stroke-width="0.8"/><text x="310.0" y="269.0" font-size="9" fill="#345faa" font-weight="bold" text-anchor="middle" font-family="Poppins, DejaVu Sans, sans-serif" >instituciones</text><path d="M 450 214 C 450 266.0, 620 266.0, 620 318" stroke="#dd2e26" stroke-width="2.2" fill="none"  marker-end="url(#msoliddd2e26)" stroke-linecap="round"/><rect x="452.0" y="257.0" width="166.0" height="16" rx="8" fill="#fffffff0" stroke="#dd2e26" stroke-width="0.8"/><text x="535.0" y="269.0" font-size="9" fill="#dd2e26" font-weight="bold" text-anchor="middle" font-family="Poppins, DejaVu Sans, sans-serif" >licencias + slots idFac 1-10</text><path d="M 560 214 C 560 266.0, 1000 266.0, 1000 318" stroke="#2a2765" stroke-width="2.2" fill="none"  marker-end="url(#msolid2a2765)" stroke-linecap="round"/><rect x="738.25" y="257.0" width="83.5" height="16" rx="8" fill="#fffffff0" stroke="#2a2765" stroke-width="0.8"/><text x="780.0" y="269.0" font-size="9" fill="#2a2765" font-weight="bold" text-anchor="middle" font-family="Poppins, DejaVu Sans, sans-serif" >facilitadores</text><path d="M 620 214 C 620 266.0, 1380 266.0, 1380 318" stroke="#c9a50e" stroke-width="2.2" fill="none"  marker-end="url(#msolidc9a50e)" stroke-linecap="round"/><rect x="977.5" y="257.0" width="45.0" height="16" rx="8" fill="#fffffff0" stroke="#c9a50e" stroke-width="0.8"/><text x="1000.0" y="269.0" font-size="9" fill="#c9a50e" font-weight="bold" text-anchor="middle" font-family="Poppins, DejaVu Sans, sans-serif" >videos</text><path d="M 100 328 L 100 396 A 140.0 12 0 0 0 380 396 L 380 328" fill="#fff" stroke="#345faa" stroke-width="2.5"/><ellipse cx="240.0" cy="328" rx="140.0" ry="12" fill="#345faa" fill-opacity="0.13" stroke="#345faa" stroke-width="2.5"/><text x="240.0" y="354" font-size="12.5" fill="#2a2765" font-weight="bold" text-anchor="middle" font-family="Poppins, DejaVu Sans, sans-serif" >Carga Inicial Instituciones</text><text x="240.0" y="392" font-size="9.5" fill="#6b6b7a" font-weight="normal" text-anchor="middle" font-family="Poppins, DejaVu Sans, sans-serif" >ID 18410210764 · clave: ID Educabot (text_mm2qyw9)</text><path d="M 480 328 L 480 396 A 140.0 12 0 0 0 760 396 L 760 328" fill="#fff" stroke="#dd2e26" stroke-width="2.5"/><ellipse cx="620.0" cy="328" rx="140.0" ry="12" fill="#dd2e26" fill-opacity="0.13" stroke="#dd2e26" stroke-width="2.5"/><text x="620.0" y="354" font-size="12.5" fill="#2a2765" font-weight="bold" text-anchor="middle" font-family="Poppins, DejaVu Sans, sans-serif" >Carga Inicial Licencias / Grupos</text><text x="620.0" y="392" font-size="9.5" fill="#6b6b7a" font-weight="normal" text-anchor="middle" font-family="Poppins, DejaVu Sans, sans-serif" >ID 18410212203 · clave: name · slots facilitador 1-10</text><path d="M 860 328 L 860 396 A 140.0 12 0 0 0 1140 396 L 1140 328" fill="#fff" stroke="#2a2765" stroke-width="2.5"/><ellipse cx="1000.0" cy="328" rx="140.0" ry="12" fill="#2a2765" fill-opacity="0.13" stroke="#2a2765" stroke-width="2.5"/><text x="1000.0" y="354" font-size="12.5" fill="#2a2765" font-weight="bold" text-anchor="middle" font-family="Poppins, DejaVu Sans, sans-serif" >Carga Inicial Facilitadores</text><text x="1000.0" y="392" font-size="9.5" fill="#6b6b7a" font-weight="normal" text-anchor="middle" font-family="Poppins, DejaVu Sans, sans-serif" >ID 18410212195 · lookup por idFac (text_mm3qmw8x)</text><path d="M 1240 328 L 1240 396 A 140.0 12 0 0 0 1520 396 L 1520 328" fill="#fff" stroke="#c9a50e" stroke-width="2.5"/><ellipse cx="1380.0" cy="328" rx="140.0" ry="12" fill="#c9a50e" fill-opacity="0.13" stroke="#c9a50e" stroke-width="2.5"/><text x="1380.0" y="354" font-size="12.5" fill="#2a2765" font-weight="bold" text-anchor="middle" font-family="Poppins, DejaVu Sans, sans-serif" >Carga Inicial Videos YouTube</text><text x="1380.0" y="392" font-size="9.5" fill="#6b6b7a" font-weight="normal" text-anchor="middle" font-family="Poppins, DejaVu Sans, sans-serif" >origen del flujo F4 · vinculo por licencia</text><path d="M 240 410 C 240 457.0, 240 457.0, 240 504" stroke="#345faa" stroke-width="2.2" fill="none"  marker-end="url(#msolid345faa)" stroke-linecap="round"/><rect x="173.5" y="448.0" width="133.0" height="16" rx="8" fill="#fffffff0" stroke="#345faa" stroke-width="0.8"/><text x="240.0" y="460.0" font-size="9" fill="#345faa" font-weight="bold" text-anchor="middle" font-family="Poppins, DejaVu Sans, sans-serif" >watch crear/actualizar</text><path d="M 620 410 C 620 457.0, 620 457.0, 620 504" stroke="#dd2e26" stroke-width="2.2" fill="none"  marker-end="url(#msoliddd2e26)" stroke-linecap="round"/><rect x="553.5" y="448.0" width="133.0" height="16" rx="8" fill="#fffffff0" stroke="#dd2e26" stroke-width="0.8"/><text x="620.0" y="460.0" font-size="9" fill="#dd2e26" font-weight="bold" text-anchor="middle" font-family="Poppins, DejaVu Sans, sans-serif" >watch crear/actualizar</text><path d="M 760 390 C 760 500.0, 940 500.0, 940 610" stroke="#2a2765" stroke-width="2.2" fill="none" stroke-dasharray="7 6" marker-end="url(#mopen2a2765)" stroke-linecap="round"/><rect x="780.75" y="491.0" width="138.5" height="16" rx="8" fill="#fffffff0" stroke="#2a2765" stroke-width="0.8"/><text x="850.0" y="503.0" font-size="9" fill="#2a2765" font-weight="bold" text-anchor="middle" font-family="Poppins, DejaVu Sans, sans-serif" >lookup datos personales</text><path d="M 1000 410 C 1000 457.0, 1000 457.0, 1000 504" stroke="#2a2765" stroke-width="2.2" fill="none"  marker-end="url(#msolid2a2765)" stroke-linecap="round"/><rect x="922.5" y="448.0" width="155.0" height="16" rx="8" fill="#fffffff0" stroke="#2a2765" stroke-width="0.8"/><text x="1000.0" y="460.0" font-size="9" fill="#2a2765" font-weight="bold" text-anchor="middle" font-family="Poppins, DejaVu Sans, sans-serif" >watch (trigger: licencias)</text><path d="M 1380 410 C 1380 457.0, 1380 457.0, 1380 504" stroke="#c9a50e" stroke-width="2.2" fill="none"  marker-end="url(#msolidc9a50e)" stroke-linecap="round"/><rect x="1360.25" y="448.0" width="39.5" height="16" rx="8" fill="#fffffff0" stroke="#c9a50e" stroke-width="0.8"/><text x="1380.0" y="460.0" font-size="9" fill="#c9a50e" font-weight="bold" text-anchor="middle" font-family="Poppins, DejaVu Sans, sans-serif" >watch</text><path d="M 700 410 C 700 464.0, 940 464.0, 940 518" stroke="#dd2e26" stroke-width="2.2" fill="none" stroke-dasharray="7 6" marker-end="url(#mopendd2e26)" stroke-linecap="round"/><rect x="767.25" y="455.0" width="105.5" height="16" rx="8" fill="#fffffff0" stroke="#dd2e26" stroke-width="0.8"/><text x="820.0" y="467.0" font-size="9" fill="#dd2e26" font-weight="bold" text-anchor="middle" font-family="Poppins, DejaVu Sans, sans-serif" >F3 lee slots 1-10</text><rect x="1770" y="474" width="30.0" height="30.0" rx="8.0" fill="#6d00cc"/><text x="1785.0" y="495.0" font-size="15.0" fill="#fff" font-weight="bold" text-anchor="middle" font-family="Poppins, DejaVu Sans, sans-serif" >M</text><text x="1810" y="495" font-size="12" fill="#2a2765" font-weight="bold" text-anchor="start" font-family="Poppins, DejaVu Sans, sans-serif" >Make</text><rect x="100" y="504" width="280" height="58" rx="10" fill="#fff" stroke="#345faa" stroke-width="2.5"/><rect x="100" y="504" width="5" height="58" rx="2.5" fill="#345faa"/><text x="114" y="525" font-size="12.5" fill="#2a2765" font-weight="bold" text-anchor="start" font-family="Poppins, DejaVu Sans, sans-serif" >F1 · v2 — Instituciones sync índice</text><text x="114" y="542" font-size="10" fill="#6b6b7a" font-weight="normal" text-anchor="start" font-family="Poppins, DejaVu Sans, sans-serif" >webhook instantáneo · 74 ejec · 4 err</text><rect x="322.4" y="494" width="49.599999999999994" height="18" rx="9" fill="#2fae5f"/><text x="347.2" y="507" font-size="9" fill="#fff" font-weight="bold" text-anchor="middle" font-family="Poppins, DejaVu Sans, sans-serif" >ACTIVO</text><path d="M 240 562 L 240 612" stroke="#345faa" stroke-width="2.2" fill="none"  marker-end="url(#msolid345faa)" stroke-linecap="round"/><path d="M 240 614 L 264 638 L 240 662 L 216 638 Z" fill="#fff" stroke="#345faa" stroke-width="2.5"/><path d="M 231 629 L 249 647 M 231 647 L 249 629" stroke="#345faa" stroke-width="3" stroke-linecap="round"/><text x="278" y="628" font-size="10.5" fill="#2a2765" font-weight="bold" text-anchor="start" font-family="Poppins, DejaVu Sans, sans-serif" >¿Institución nueva?</text><text x="278" y="640" font-size="10.5" fill="#2a2765" font-weight="bold" text-anchor="start" font-family="Poppins, DejaVu Sans, sans-serif" >(ID Educabot en índice)</text><rect x="66" y="696" width="180" height="58" rx="10" fill="#fff" stroke="#345faa" stroke-width="2.5"/><rect x="66" y="696" width="5" height="58" rx="2.5" fill="#345faa"/><text x="80" y="717" font-size="12.5" fill="#2a2765" font-weight="bold" text-anchor="start" font-family="Poppins, DejaVu Sans, sans-serif" >NO -&gt; Actualizar</text><text x="80" y="734" font-size="10" fill="#6b6b7a" font-weight="normal" text-anchor="start" font-family="Poppins, DejaVu Sans, sans-serif" >Change Multiple</text><text x="80" y="746" font-size="10" fill="#6b6b7a" font-weight="normal" text-anchor="start" font-family="Poppins, DejaVu Sans, sans-serif" >Column Values</text><rect x="268" y="696" width="196" height="58" rx="10" fill="#fff" stroke="#345faa" stroke-width="2.5"/><rect x="268" y="696" width="5" height="58" rx="2.5" fill="#345faa"/><text x="282" y="717" font-size="12.5" fill="#2a2765" font-weight="bold" text-anchor="start" font-family="Poppins, DejaVu Sans, sans-serif" >SÍ -&gt; Crear ítem</text><text x="282" y="734" font-size="10" fill="#6b6b7a" font-weight="normal" text-anchor="start" font-family="Poppins, DejaVu Sans, sans-serif" >+ geocodificación</text><text x="282" y="746" font-size="10" fill="#6b6b7a" font-weight="normal" text-anchor="start" font-family="Poppins, DejaVu Sans, sans-serif" >(location_mm4dttwx)</text><path d="M 222 656 C 222 676.0, 156 676.0, 156 696" stroke="#345faa" stroke-width="2.2" fill="none"  marker-end="url(#msolid345faa)" stroke-linecap="round"/><rect x="166.5" y="667.0" width="45.0" height="16" rx="8" fill="#fffffff0" stroke="#345faa" stroke-width="0.8"/><text x="189.0" y="679.0" font-size="9" fill="#345faa" font-weight="bold" text-anchor="middle" font-family="Poppins, DejaVu Sans, sans-serif" >existe</text><path d="M 258 656 C 258 676.0, 366 676.0, 366 696" stroke="#345faa" stroke-width="2.2" fill="none"  marker-end="url(#msolid345faa)" stroke-linecap="round"/><rect x="292.25" y="667.0" width="39.5" height="16" rx="8" fill="#fffffff0" stroke="#345faa" stroke-width="0.8"/><text x="312.0" y="679.0" font-size="9" fill="#345faa" font-weight="bold" text-anchor="middle" font-family="Poppins, DejaVu Sans, sans-serif" >nueva</text><path d="M 156 754 C 156 855.0, 200 855.0, 200 956" stroke="#345faa" stroke-width="2.2" fill="none"  marker-end="url(#msolid345faa)" stroke-linecap="round"/><path d="M 366 754 C 366 855.0, 260 855.0, 260 956" stroke="#345faa" stroke-width="2.2" fill="none"  marker-end="url(#msolid345faa)" stroke-linecap="round"/><rect x="480" y="504" width="280" height="58" rx="10" fill="#fff" stroke="#dd2e26" stroke-width="2.5"/><rect x="480" y="504" width="5" height="58" rx="2.5" fill="#dd2e26"/><text x="494" y="525" font-size="12.5" fill="#2a2765" font-weight="bold" text-anchor="start" font-family="Poppins, DejaVu Sans, sans-serif" >F2 · v2 — Licencias sync índice</text><text x="494" y="542" font-size="10" fill="#6b6b7a" font-weight="normal" text-anchor="start" font-family="Poppins, DejaVu Sans, sans-serif" >webhook instantáneo · 58 ejec · 0 err</text><rect x="702.4" y="494" width="49.599999999999994" height="18" rx="9" fill="#2fae5f"/><text x="727.2" y="507" font-size="9" fill="#fff" font-weight="bold" text-anchor="middle" font-family="Poppins, DejaVu Sans, sans-serif" >ACTIVO</text><path d="M 620 562 L 620 612" stroke="#dd2e26" stroke-width="2.2" fill="none"  marker-end="url(#msoliddd2e26)" stroke-linecap="round"/><path d="M 620 614 L 644 638 L 620 662 L 596 638 Z" fill="#fff" stroke="#dd2e26" stroke-width="2.5"/><path d="M 611 629 L 629 647 M 611 647 L 629 629" stroke="#dd2e26" stroke-width="3" stroke-linecap="round"/><text x="658" y="628" font-size="10.5" fill="#2a2765" font-weight="bold" text-anchor="start" font-family="Poppins, DejaVu Sans, sans-serif" >¿Licencia existe?</text><text x="658" y="640" font-size="10.5" fill="#2a2765" font-weight="bold" text-anchor="start" font-family="Poppins, DejaVu Sans, sans-serif" >(name = ID Educabot)</text><rect x="478" y="696" width="140" height="58" rx="10" fill="#fff" stroke="#dd2e26" stroke-width="2.5"/><rect x="478" y="696" width="5" height="58" rx="2.5" fill="#dd2e26"/><text x="492" y="717" font-size="12.5" fill="#2a2765" font-weight="bold" text-anchor="start" font-family="Poppins, DejaVu Sans, sans-serif" >SÍ -&gt; Actualizar</text><rect x="646" y="696" width="150" height="58" rx="10" fill="#fff" stroke="#dd2e26" stroke-width="2.5"/><rect x="646" y="696" width="5" height="58" rx="2.5" fill="#dd2e26"/><text x="660" y="717" font-size="12.5" fill="#2a2765" font-weight="bold" text-anchor="start" font-family="Poppins, DejaVu Sans, sans-serif" >NO -&gt; Crear ítem</text><text x="660" y="734" font-size="10" fill="#6b6b7a" font-weight="normal" text-anchor="start" font-family="Poppins, DejaVu Sans, sans-serif" >8 columnas</text><path d="M 602 656 C 602 676.0, 548 676.0, 548 696" stroke="#dd2e26" stroke-width="2.2" fill="none"  marker-end="url(#msoliddd2e26)" stroke-linecap="round"/><path d="M 638 656 C 638 676.0, 721 676.0, 721 696" stroke="#dd2e26" stroke-width="2.2" fill="none"  marker-end="url(#msoliddd2e26)" stroke-linecap="round"/><path d="M 548 754 C 548 855.0, 560 855.0, 560 956" stroke="#dd2e26" stroke-width="2.2" fill="none"  marker-end="url(#msoliddd2e26)" stroke-linecap="round"/><path d="M 721 754 C 721 855.0, 600 855.0, 600 956" stroke="#dd2e26" stroke-width="2.2" fill="none"  marker-end="url(#msoliddd2e26)" stroke-linecap="round"/><rect x="870" y="504" width="270" height="58" rx="10" fill="#fff" stroke="#2a2765" stroke-width="2.5"/><rect x="870" y="504" width="5" height="58" rx="2.5" fill="#2a2765"/><text x="884" y="525" font-size="12.5" fill="#2a2765" font-weight="bold" text-anchor="start" font-family="Poppins, DejaVu Sans, sans-serif" >F3 · v3 — Facilitadores x Ciclo sync</text><text x="884" y="542" font-size="10" fill="#6b6b7a" font-weight="normal" text-anchor="start" font-family="Poppins, DejaVu Sans, sans-serif" >por cada slot con idFac · 165 ejec · 52 err</text><rect x="1082.4" y="494" width="49.599999999999994" height="18" rx="9" fill="#2fae5f"/><text x="1107.2" y="507" font-size="9" fill="#fff" font-weight="bold" text-anchor="middle" font-family="Poppins, DejaVu Sans, sans-serif" >ACTIVO</text><path d="M 905 586 L 929 610 L 905 634 L 881 610 Z" fill="#fff" stroke="#2a2765" stroke-width="2.5"/><path d="M 896 601 L 914 619 M 896 619 L 914 601" stroke="#2a2765" stroke-width="3" stroke-linecap="round"/><text x="938" y="614" font-size="10.5" fill="#2a2765" font-weight="bold" text-anchor="start" font-family="Poppins, DejaVu Sans, sans-serif" >Router A · ¿esta en Carga Inicial Facilitadores?</text><path d="M 905 634 L 905 644" stroke="#2a2765" stroke-width="1.8" fill="none"  marker-end="url(#msolid2a2765)" stroke-linecap="round"/><path d="M 905 644 L 929 668 L 905 692 L 881 668 Z" fill="#fff" stroke="#2a2765" stroke-width="2.5"/><path d="M 896 659 L 914 677 M 896 677 L 914 659" stroke="#2a2765" stroke-width="3" stroke-linecap="round"/><text x="938" y="672" font-size="10.5" fill="#2a2765" font-weight="bold" text-anchor="start" font-family="Poppins, DejaVu Sans, sans-serif" >Router B · ¿idFac ya existe en FxL? (upsert)</text><path d="M 905 692 L 905 702" stroke="#2a2765" stroke-width="1.8" fill="none"  marker-end="url(#msolid2a2765)" stroke-linecap="round"/><path d="M 905 702 L 929 726 L 905 750 L 881 726 Z" fill="#fff" stroke="#2a2765" stroke-width="2.5"/><path d="M 896 717 L 914 735 M 896 735 L 914 717" stroke="#2a2765" stroke-width="3" stroke-linecap="round"/><text x="938" y="730" font-size="10.5" fill="#2a2765" font-weight="bold" text-anchor="start" font-family="Poppins, DejaVu Sans, sans-serif" >Router C · ¿DNI ya existe en Maestro? (upsert)</text><path d="M 905 562 L 905 586" stroke="#2a2765" stroke-width="2.2" fill="none"  marker-end="url(#msolid2a2765)" stroke-linecap="round"/><path d="M 905 750 C 905 853.0, 860 853.0, 860 956" stroke="#2a2765" stroke-width="2.2" fill="none"  marker-end="url(#msolid2a2765)" stroke-linecap="round"/><rect x="838.0" y="844.0" width="89.0" height="16" rx="8" fill="#fffffff0" stroke="#2a2765" stroke-width="0.8"/><text x="882.5" y="856.0" font-size="9" fill="#2a2765" font-weight="bold" text-anchor="middle" font-family="Poppins, DejaVu Sans, sans-serif" >fila por idFac</text><path d="M 1000 750 C 1000 853.0, 1140 853.0, 1140 956" stroke="#2a2765" stroke-width="2.2" fill="none"  marker-end="url(#msolid2a2765)" stroke-linecap="round"/><rect x="1031.0" y="844.0" width="78.0" height="16" rx="8" fill="#fffffff0" stroke="#2a2765" stroke-width="0.8"/><text x="1070.0" y="856.0" font-size="9" fill="#2a2765" font-weight="bold" text-anchor="middle" font-family="Poppins, DejaVu Sans, sans-serif" >fila por DNI</text><rect x="1180" y="504" width="270" height="58" rx="10" fill="#fff" stroke="#0a8baa" stroke-width="2.5"/><rect x="1180" y="504" width="5" height="58" rx="2.5" fill="#0a8baa"/><text x="1194" y="525" font-size="12.5" fill="#2a2765" font-weight="bold" text-anchor="start" font-family="Poppins, DejaVu Sans, sans-serif" >F6 · v1 — Maestro + Subitems</text><text x="1194" y="542" font-size="10" fill="#6b6b7a" font-weight="normal" text-anchor="start" font-family="Poppins, DejaVu Sans, sans-serif" >vinculación · 158 ejec · 1 err</text><rect x="1392.4" y="494" width="49.599999999999994" height="18" rx="9" fill="#2fae5f"/><text x="1417.2" y="507" font-size="9" fill="#fff" font-weight="bold" text-anchor="middle" font-family="Poppins, DejaVu Sans, sans-serif" >ACTIVO</text><text x="1194" y="578" font-size="9.5" fill="#6b6b7a" font-weight="normal" text-anchor="start" font-family="Poppins, DejaVu Sans, sans-serif" >crea 1 subitem por inscripción y lo vincula:</text><text x="1194" y="590" font-size="9.5" fill="#6b6b7a" font-weight="normal" text-anchor="start" font-family="Poppins, DejaVu Sans, sans-serif" >Licencia (mm4c5mp3) + FxL (mm4c40he)</text><text x="1194" y="602" font-size="9.5" fill="#6b6b7a" font-weight="normal" text-anchor="start" font-family="Poppins, DejaVu Sans, sans-serif" >rol: Referente / Co-Facilitador (color_mm4dx9ba)</text><path d="M 1315 562 C 1315 759.0, 1230 759.0, 1230 956" stroke="#0a8baa" stroke-width="2.2" fill="none"  marker-end="url(#msolid0a8baa)" stroke-linecap="round"/><rect x="1244.5" y="750.0" width="56.0" height="16" rx="8" fill="#fffffff0" stroke="#0a8baa" stroke-width="0.8"/><text x="1272.5" y="762.0" font-size="9" fill="#0a8baa" font-weight="bold" text-anchor="middle" font-family="Poppins, DejaVu Sans, sans-serif" >subitems</text><rect x="1500" y="504" width="300" height="58" rx="10" fill="#fff" stroke="#c9a50e" stroke-width="2.5"/><rect x="1500" y="504" width="5" height="58" rx="2.5" fill="#c9a50e"/><text x="1514" y="525" font-size="12.5" fill="#2a2765" font-weight="bold" text-anchor="start" font-family="Poppins, DejaVu Sans, sans-serif" >F4 · v2 — Videos YouTube sync índice</text><text x="1514" y="542" font-size="10" fill="#6b6b7a" font-weight="normal" text-anchor="start" font-family="Poppins, DejaVu Sans, sans-serif" >11 ejec · 11 err · escenario inválido</text><rect x="1731.2" y="494" width="60.8" height="18" rx="9" fill="#9a98a8"/><text x="1761.6" y="507" font-size="9" fill="#fff" font-weight="bold" text-anchor="middle" font-family="Poppins, DejaVu Sans, sans-serif" >INACTIVO</text><path d="M 1650 562 C 1650 759.0, 1500 759.0, 1500 956" stroke="#c9a50e" stroke-width="2.2" fill="none" stroke-dasharray="7 6" marker-end="url(#msolidc9a50e)" stroke-linecap="round"/><rect x="1514.0" y="750.0" width="122.0" height="16" rx="8" fill="#fffffff0" stroke="#c9a50e" stroke-width="0.8"/><text x="1575.0" y="762.0" font-size="9" fill="#c9a50e" font-weight="bold" text-anchor="middle" font-family="Poppins, DejaVu Sans, sans-serif" >pendiente de reparar</text><rect x="480" y="790" width="300" height="52" rx="10" fill="#fff" stroke="#345faa" stroke-width="2.5"/><rect x="480" y="790" width="5" height="52" rx="2.5" fill="#345faa"/><text x="494" y="811" font-size="12.5" fill="#2a2765" font-weight="bold" text-anchor="start" font-family="Poppins, DejaVu Sans, sans-serif" >F5 · v1 — Conectar Licencia &lt;-&gt; Institución</text><text x="494" y="828" font-size="10" fill="#6b6b7a" font-weight="normal" text-anchor="start" font-family="Poppins, DejaVu Sans, sans-serif" >completa la relación mm41fdg5 · 2 ejec · 0 err</text><rect x="711.2" y="780" width="60.8" height="18" rx="9" fill="#9a98a8"/><text x="741.6" y="793" font-size="9" fill="#fff" font-weight="bold" text-anchor="middle" font-family="Poppins, DejaVu Sans, sans-serif" >INACTIVO</text><rect x="1180" y="790" width="300" height="52" rx="10" fill="#fff" stroke="#c9a50e" stroke-width="2.5"/><rect x="1180" y="790" width="5" height="52" rx="2.5" fill="#c9a50e"/><text x="1194" y="811" font-size="12.5" fill="#2a2765" font-weight="bold" text-anchor="start" font-family="Poppins, DejaVu Sans, sans-serif" >F7 · v1 — Conectar Video &lt;-&gt; Licencia</text><text x="1194" y="828" font-size="10" fill="#6b6b7a" font-weight="normal" text-anchor="start" font-family="Poppins, DejaVu Sans, sans-serif" >completa la relación mm4npjkr · 1 ejec · 0 err</text><rect x="1411.2" y="780" width="60.8" height="18" rx="9" fill="#9a98a8"/><text x="1441.6" y="793" font-size="9" fill="#fff" font-weight="bold" text-anchor="middle" font-family="Poppins, DejaVu Sans, sans-serif" >INACTIVO</text><circle cx="130" cy="816" r="19" fill="#fff" stroke="#6b6b7a" stroke-width="2.5"/><circle cx="130" cy="816" r="14" fill="none" stroke="#6b6b7a" stroke-width="1.5"/><path d="M 130 808 L 130 816 L 136 820" stroke="#6b6b7a" stroke-width="2" fill="none" stroke-linecap="round"/><rect x="162" y="790" width="290" height="52" rx="10" fill="#fff" stroke="#6b6b7a" stroke-width="2.5"/><rect x="162" y="790" width="5" height="52" rx="2.5" fill="#6b6b7a"/><text x="176" y="811" font-size="12.5" fill="#2a2765" font-weight="bold" text-anchor="start" font-family="Poppins, DejaVu Sans, sans-serif" >F8 · v1 — Sweep diario 07:30</text><text x="176" y="828" font-size="10" fill="#6b6b7a" font-weight="normal" text-anchor="start" font-family="Poppins, DejaVu Sans, sans-serif" >repara conexiones faltantes via GraphQL · 4 ejec · 4 err</text><rect x="383.2" y="780" width="60.8" height="18" rx="9" fill="#9a98a8"/><text x="413.6" y="793" font-size="9" fill="#fff" font-weight="bold" text-anchor="middle" font-family="Poppins, DejaVu Sans, sans-serif" >INACTIVO</text><path d="M 90 958 L 90 1024 A 135.0 12 0 0 0 360 1024 L 360 958" fill="#fff" stroke="#345faa" stroke-width="2.5"/><ellipse cx="225.0" cy="958" rx="135.0" ry="12" fill="#345faa" fill-opacity="0.13" stroke="#345faa" stroke-width="2.5"/><text x="225.0" y="984" font-size="12.5" fill="#2a2765" font-weight="bold" text-anchor="middle" font-family="Poppins, DejaVu Sans, sans-serif" >Instituciones — 1.741</text><text x="225.0" y="1020" font-size="9.5" fill="#6b6b7a" font-weight="normal" text-anchor="middle" font-family="Poppins, DejaVu Sans, sans-serif" >18416586127 · geocodificadas (Map Widget)</text><path d="M 430 958 L 430 1024 A 135.0 12 0 0 0 700 1024 L 700 958" fill="#fff" stroke="#dd2e26" stroke-width="2.5"/><ellipse cx="565.0" cy="958" rx="135.0" ry="12" fill="#dd2e26" fill-opacity="0.13" stroke="#dd2e26" stroke-width="2.5"/><text x="565.0" y="984" font-size="12.5" fill="#2a2765" font-weight="bold" text-anchor="middle" font-family="Poppins, DejaVu Sans, sans-serif" >Licencias — 6.197</text><text x="565.0" y="1020" font-size="9.5" fill="#6b6b7a" font-weight="normal" text-anchor="middle" font-family="Poppins, DejaVu Sans, sans-serif" >18416586236 · clubs por ciclo 2022-2026</text><path d="M 760 958 L 760 1024 A 125.0 12 0 0 0 1010 1024 L 1010 958" fill="#fff" stroke="#0a8baa" stroke-width="2.5"/><ellipse cx="885.0" cy="958" rx="125.0" ry="12" fill="#0a8baa" fill-opacity="0.13" stroke="#0a8baa" stroke-width="2.5"/><text x="885.0" y="984" font-size="12.5" fill="#2a2765" font-weight="bold" text-anchor="middle" font-family="Poppins, DejaVu Sans, sans-serif" >ID Facilitadores x Ciclo — 5.051</text><text x="885.0" y="1020" font-size="9.5" fill="#6b6b7a" font-weight="normal" text-anchor="middle" font-family="Poppins, DejaVu Sans, sans-serif" >18416586201 · 1 fila por idFac</text><path d="M 1070 958 L 1070 1024 A 145.0 12 0 0 0 1360 1024 L 1360 958" fill="#fff" stroke="#2a2765" stroke-width="2.5"/><ellipse cx="1215.0" cy="958" rx="145.0" ry="12" fill="#2a2765" fill-opacity="0.13" stroke="#2a2765" stroke-width="2.5"/><text x="1215.0" y="984" font-size="12.5" fill="#2a2765" font-weight="bold" text-anchor="middle" font-family="Poppins, DejaVu Sans, sans-serif" >Facilitadores Únicos — 4.692</text><text x="1215.0" y="1020" font-size="9.5" fill="#6b6b7a" font-weight="normal" text-anchor="middle" font-family="Poppins, DejaVu Sans, sans-serif" >18416605024 · 1 fila por DNI · 10.422 subitems</text><path d="M 1420 958 L 1420 1024 A 110.0 12 0 0 0 1640 1024 L 1640 958" fill="#fff" stroke="#c9a50e" stroke-width="2.5"/><ellipse cx="1530.0" cy="958" rx="110.0" ry="12" fill="#c9a50e" fill-opacity="0.13" stroke="#c9a50e" stroke-width="2.5"/><text x="1530.0" y="984" font-size="12.5" fill="#2a2765" font-weight="bold" text-anchor="middle" font-family="Poppins, DejaVu Sans, sans-serif" >Videos YouTube — 4.354</text><text x="1530.0" y="1020" font-size="9.5" fill="#6b6b7a" font-weight="normal" text-anchor="middle" font-family="Poppins, DejaVu Sans, sans-serif" >18419400544</text><path d="M 1680 928 L 1680 984 A 100.0 12 0 0 0 1880 984 L 1880 928" fill="#fff" stroke="#345faa" stroke-width="2.5"/><ellipse cx="1780.0" cy="928" rx="100.0" ry="12" fill="#345faa" fill-opacity="0.13" stroke="#345faa" stroke-width="2.5"/><text x="1780.0" y="954" font-size="12.5" fill="#2a2765" font-weight="bold" text-anchor="middle" font-family="Poppins, DejaVu Sans, sans-serif" >Eventos y Capac. — 25</text><text x="1780.0" y="980" font-size="9.5" fill="#6b6b7a" font-weight="normal" text-anchor="middle" font-family="Poppins, DejaVu Sans, sans-serif" >18419453082</text><path d="M 1680 1102 L 1680 1158 A 100.0 12 0 0 0 1880 1158 L 1880 1102" fill="#fff" stroke="#12c2ec" stroke-width="2.5"/><ellipse cx="1780.0" cy="1102" rx="100.0" ry="12" fill="#12c2ec" fill-opacity="0.13" stroke="#12c2ec" stroke-width="2.5"/><text x="1780.0" y="1128" font-size="12.5" fill="#2a2765" font-weight="bold" text-anchor="middle" font-family="Poppins, DejaVu Sans, sans-serif" >Asistencias — 2.089</text><text x="1780.0" y="1154" font-size="9.5" fill="#6b6b7a" font-weight="normal" text-anchor="middle" font-family="Poppins, DejaVu Sans, sans-serif" >18419484190</text><path d="M 360 990 L 430 990" stroke="#9a98a8" stroke-width="2"  marker-end="url(#msolid9a98a8)" marker-start="url(#mstart9a98a8)"/><rect x="367.4" y="981" width="55.2" height="16" rx="8" fill="#fffffff0" stroke="#9a98a8" stroke-width="0.8"/><text x="395.0" y="993" font-size="9" fill="#9a98a8" font-weight="bold" text-anchor="middle" font-family="Poppins, DejaVu Sans, sans-serif" >mm41fdg5</text><path d="M 700 990 L 760 990" stroke="#9a98a8" stroke-width="2"  marker-end="url(#msolid9a98a8)" marker-start="url(#mstart9a98a8)"/><rect x="702.4" y="981" width="55.2" height="16" rx="8" fill="#fffffff0" stroke="#9a98a8" stroke-width="0.8"/><text x="730.0" y="993" font-size="9" fill="#9a98a8" font-weight="bold" text-anchor="middle" font-family="Poppins, DejaVu Sans, sans-serif" >mm41fdb4</text><path d="M 1010 990 L 1070 990" stroke="#9a98a8" stroke-width="2" stroke-dasharray="7 6" marker-end="url(#msolid9a98a8)" marker-start="url(#mstart9a98a8)"/><rect x="1004.3" y="981" width="71.4" height="16" rx="8" fill="#fffffff0" stroke="#9a98a8" stroke-width="0.8"/><text x="1040.0" y="993" font-size="9" fill="#9a98a8" font-weight="bold" text-anchor="middle" font-family="Poppins, DejaVu Sans, sans-serif" >match idFac</text><path d="M 1360 990 L 1420 990" stroke="#9a98a8" stroke-width="2"  marker-end="url(#msolid9a98a8)" marker-start="url(#mstart9a98a8)"/><rect x="1362.4" y="981" width="55.2" height="16" rx="8" fill="#fffffff0" stroke="#9a98a8" stroke-width="0.8"/><text x="1390.0" y="993" font-size="9" fill="#9a98a8" font-weight="bold" text-anchor="middle" font-family="Poppins, DejaVu Sans, sans-serif" >mm4nza5p</text><path d="M 1360 1020 C 1360 1075.0, 1680 1075.0, 1680 1130" stroke="#12c2ec" stroke-width="2.2" fill="none"  marker-end="url(#msolid12c2ec)" stroke-linecap="round"/><rect x="1409.5" y="1066.0" width="221.0" height="16" rx="8" fill="#fffffff0" stroke="#12c2ec" stroke-width="0.8"/><text x="1520.0" y="1078.0" font-size="9" fill="#12c2ec" font-weight="bold" text-anchor="middle" font-family="Poppins, DejaVu Sans, sans-serif" >mm4pj74t · asistencias del facilitador</text><path d="M 1780 1090 L 1780 996" stroke="#12c2ec" stroke-width="2.2" fill="none"  marker-end="url(#msolid12c2ec)" stroke-linecap="round"/><rect x="1752.0" y="1034.0" width="56.0" height="16" rx="8" fill="#fffffff0" stroke="#12c2ec" stroke-width="0.8"/><text x="1780.0" y="1046.0" font-size="9" fill="#12c2ec" font-weight="bold" text-anchor="middle" font-family="Poppins, DejaVu Sans, sans-serif" >mm4pvp7b</text><text x="560" y="1070" font-size="10.5" fill="#6b6b7a" font-weight="bold" text-anchor="start" font-family="Poppins, DejaVu Sans, sans-serif" >Regla de oro: Educabot es la fuente de verdad — no editar a mano las claves de sync (ID Educabot / name / idFac).</text><rect x="90" y="1086" width="1300" height="76" rx="10" fill="#fff" stroke="#e7e5ef"/><text x="110" y="1108" font-size="10" fill="#dd2e26" font-weight="bold" text-anchor="start" font-family="Poppins, DejaVu Sans, sans-serif" >CAMINOS POR TIPO DE DATO</text><rect x="110" y="1118" width="26" height="5" rx="2.5" fill="#345faa"/><text x="144" y="1126" font-size="9.5" fill="#6b6b7a" font-weight="normal" text-anchor="start" font-family="Poppins, DejaVu Sans, sans-serif" >Institución: Educabot → Carga Inicial → F1 → gateway nueva/existente &gt; Índice (+geo) &lt;-&gt; Licencias</text><rect x="750" y="1118" width="26" height="5" rx="2.5" fill="#dd2e26"/><text x="784" y="1126" font-size="9.5" fill="#6b6b7a" font-weight="normal" text-anchor="start" font-family="Poppins, DejaVu Sans, sans-serif" >Licencia: Educabot → Carga Inicial → F2 &gt; upsert por name &gt; Índice &lt;-&gt; Institución (F5) &lt;-&gt; Videos (F7)</text><rect x="110" y="1134" width="26" height="5" rx="2.5" fill="#2a2765"/><text x="144" y="1142" font-size="9.5" fill="#6b6b7a" font-weight="normal" text-anchor="start" font-family="Poppins, DejaVu Sans, sans-serif" >Facilitador: Carga Inicial Licencias (slots) &gt; F3 &gt; FxL (idFac) + Maestro (DNI) &gt; F6 &gt; subitem &lt;-&gt; Licencia</text><rect x="750" y="1134" width="26" height="5" rx="2.5" fill="#c9a50e"/><text x="784" y="1142" font-size="9.5" fill="#6b6b7a" font-weight="normal" text-anchor="start" font-family="Poppins, DejaVu Sans, sans-serif" >Video: Carga Inicial &gt; F4 (inactivo) &gt; Índice &lt;-&gt; Licencia</text><rect x="110" y="1150" width="26" height="5" rx="2.5" fill="#12c2ec"/><text x="144" y="1158" font-size="9.5" fill="#6b6b7a" font-weight="normal" text-anchor="start" font-family="Poppins, DejaVu Sans, sans-serif" >Evento/Asistencia: carga operativa + Calendar &gt; Eventos &lt;-&gt; Asistencias &lt;-&gt; Facilitador</text><rect x="120" y="1267.3" width="35.2" height="26.400000000000002" rx="4.4" fill="#fff" stroke="#d5d3de" stroke-width="1"/><path d="M 122.2 1271.7 L 137.6 1283.8 L 153.0 1271.7" fill="none" stroke="#dd2e26" stroke-width="3.3000000000000003" stroke-linecap="round" stroke-linejoin="round"/><path d="M 122.2 1271.7 L 122.2 1290.4 M 153.0 1271.7 L 153.0 1290.4" stroke="#dd2e26" stroke-width="3.3000000000000003" stroke-linecap="round"/><rect x="170" y="1254" width="470" height="66" rx="10" fill="#fff" stroke="#dd2e26" stroke-width="2.5"/><rect x="170" y="1254" width="5" height="66" rx="2.5" fill="#dd2e26"/><text x="184" y="1275" font-size="12.5" fill="#2a2765" font-weight="bold" text-anchor="start" font-family="Poppins, DejaVu Sans, sans-serif" >MAIL DE INKI — crm@tedxriodelaplata.org</text><text x="184" y="1292" font-size="10" fill="#6b6b7a" font-weight="normal" text-anchor="start" font-family="Poppins, DejaVu Sans, sans-serif" >convocatorias, onboarding y seguimiento a facilitadores e instituciones</text><text x="184" y="1304" font-size="10" fill="#6b6b7a" font-weight="normal" text-anchor="start" font-family="Poppins, DejaVu Sans, sans-serif" >(Gmail conectado via MCP · plantillas con branding oficial)</text><path d="M 400 1254 C 400 1145.0, 1180 1145.0, 1180 1036" stroke="#dd2e26" stroke-width="2.2" fill="none" stroke-dasharray="7 6" marker-end="url(#mopendd2e26)" stroke-linecap="round"/><text x="660" y="1242" font-size="9.5" fill="#dd2e26" font-weight="bold" text-anchor="start" font-family="Poppins, DejaVu Sans, sans-serif" >seguimiento a facilitadores</text><path d="M 250 1254 C 250 1145.0, 220 1145.0, 220 1036" stroke="#345faa" stroke-width="2.2" fill="none" stroke-dasharray="7 6" marker-end="url(#mopen345faa)" stroke-linecap="round"/><text x="96" y="1242" font-size="9.5" fill="#345faa" font-weight="bold" text-anchor="start" font-family="Poppins, DejaVu Sans, sans-serif" >contacto institucional</text><rect x="720" y="1264" width="33.0" height="33.0" rx="5.5" fill="#4285F4"/><rect x="725.5" y="1272.8" width="22.0" height="18.700000000000003" rx="2.2" fill="#fff"/><text x="736.5" y="1287.1" font-size="11.55" fill="#4285F4" font-weight="bold" text-anchor="middle" font-family="Poppins, DejaVu Sans, sans-serif" >31</text><rect x="770" y="1254" width="430" height="66" rx="10" fill="#fff" stroke="#345faa" stroke-width="2.5"/><rect x="770" y="1254" width="5" height="66" rx="2.5" fill="#345faa"/><text x="784" y="1275" font-size="12.5" fill="#2a2765" font-weight="bold" text-anchor="start" font-family="Poppins, DejaVu Sans, sans-serif" >CALENDAR DE CLUBES — crm@ (GMT-3)</text><text x="784" y="1292" font-size="10" fill="#6b6b7a" font-weight="normal" text-anchor="start" font-family="Poppins, DejaVu Sans, sans-serif" >agenda de eventos y capacitaciones (Google Calendar conectado)</text><text x="784" y="1304" font-size="10" fill="#6b6b7a" font-weight="normal" text-anchor="start" font-family="Poppins, DejaVu Sans, sans-serif" >cada evento agendado alimenta el board Eventos</text><path d="M 1100 1254 C 1100 1125.0, 1720 1125.0, 1720 996" stroke="#345faa" stroke-width="2.2" fill="none" stroke-dasharray="7 6" marker-end="url(#mopen345faa)" stroke-linecap="round"/><rect x="1360.0" y="1116.0" width="100.0" height="16" rx="8" fill="#fffffff0" stroke="#345faa" stroke-width="0.8"/><text x="1410.0" y="1128.0" font-size="9" fill="#345faa" font-weight="bold" text-anchor="middle" font-family="Poppins, DejaVu Sans, sans-serif" >agenda &gt; Eventos</text><rect x="1300" y="1268.0" width="34.0" height="24.0" rx="7.0" fill="#dd2e26"/><path d="M 1313.0 1274.0 L 1324.0 1280.0 L 1313.0 1286.0 Z" fill="#fff"/><text x="1345" y="1282" font-size="9.5" fill="#6b6b7a" font-weight="normal" text-anchor="start" font-family="Poppins, DejaVu Sans, sans-serif" >YouTube: charlas de clubs</text><text x="1345" y="1293" font-size="9.5" fill="#6b6b7a" font-weight="normal" text-anchor="start" font-family="Poppins, DejaVu Sans, sans-serif" >(board Videos)</text><circle cx="1520.0" cy="1272" r="4.5" fill="#ff3d57"/><circle cx="1531.0" cy="1272" r="4.5" fill="#ffcb00"/><circle cx="1542.0" cy="1272" r="4.5" fill="#00ca72"/><rect x="1560" y="1260" width="24.0" height="24.0" rx="6.4" fill="#6d00cc"/><text x="1572.0" y="1276.8" font-size="12.0" fill="#fff" font-weight="bold" text-anchor="middle" font-family="Poppins, DejaVu Sans, sans-serif" >M</text><rect x="1590" y="1262.4" width="25.6" height="19.200000000000003" rx="3.2" fill="#fff" stroke="#d5d3de" stroke-width="1"/><path d="M 1591.6 1265.6 L 1602.8 1274.4 L 1614.0 1265.6" fill="none" stroke="#dd2e26" stroke-width="2.4000000000000004" stroke-linecap="round" stroke-linejoin="round"/><path d="M 1591.6 1265.6 L 1591.6 1279.2 M 1614.0 1265.6 L 1614.0 1279.2" stroke="#dd2e26" stroke-width="2.4000000000000004" stroke-linecap="round"/><rect x="1625" y="1260" width="24.0" height="24.0" rx="4.0" fill="#4285F4"/><rect x="1629.0" y="1266.4" width="16.0" height="13.600000000000001" rx="1.6" fill="#fff"/><text x="1637.0" y="1276.8" font-size="8.4" fill="#4285F4" font-weight="bold" text-anchor="middle" font-family="Poppins, DejaVu Sans, sans-serif" >31</text><text x="1520" y="1310" font-size="9.5" fill="#6b6b7a" font-weight="bold" text-anchor="start" font-family="Poppins, DejaVu Sans, sans-serif" >Integraciones conectadas:</text><text x="1520" y="1321" font-size="9.5" fill="#6b6b7a" font-weight="bold" text-anchor="start" font-family="Poppins, DejaVu Sans, sans-serif" >monday · Make · Gmail · Google Calendar</text><circle cx="70" cy="1398" r="10" fill="#fff" stroke="#dd2e26" stroke-width="2.5"/><text x="88" y="1402" font-size="10" fill="#6b6b7a" font-weight="normal" text-anchor="start" font-family="Poppins, DejaVu Sans, sans-serif" >evento de inicio</text><rect x="190" y="1387" width="34" height="22" rx="6" fill="#fff" stroke="#2a2765" stroke-width="2"/><text x="232" y="1402" font-size="10" fill="#6b6b7a" font-weight="normal" text-anchor="start" font-family="Poppins, DejaVu Sans, sans-serif" >tarea / scenario</text><path d="M 350 1386 L 362 1398 L 350 1410 L 338 1398 Z" fill="#fff" stroke="#2a2765" stroke-width="2"/><text x="372" y="1402" font-size="10" fill="#6b6b7a" font-weight="normal" text-anchor="start" font-family="Poppins, DejaVu Sans, sans-serif" >gateway (decisión)</text><path d="M 490 1389 L 490 1405 A 16 5 0 0 0 522 1405 L 522 1389" fill="#fff" stroke="#2a2765" stroke-width="2"/><ellipse cx="506" cy="1389" rx="16" ry="5" fill="#fff" stroke="#2a2765" stroke-width="2"/><text x="532" y="1402" font-size="10" fill="#6b6b7a" font-weight="normal" text-anchor="start" font-family="Poppins, DejaVu Sans, sans-serif" >tabla (data store)</text><path d="M 660 1398 L 700 1398" stroke="#6b6b7a" stroke-width="2.2" marker-end="url(#msolid6b6b7a)"/><text x="710" y="1402" font-size="10" fill="#6b6b7a" font-weight="normal" text-anchor="start" font-family="Poppins, DejaVu Sans, sans-serif" >flujo de datos</text><path d="M 810 1398 L 850 1398" stroke="#6b6b7a" stroke-width="2" stroke-dasharray="7 6" marker-end="url(#mopen6b6b7a)"/><text x="860" y="1402" font-size="10" fill="#6b6b7a" font-weight="normal" text-anchor="start" font-family="Poppins, DejaVu Sans, sans-serif" >mensaje / lógico</text><rect x="990" y="1394" width="26" height="6" rx="3" fill="#345faa"/><text x="1024" y="1402" font-size="10" fill="#6b6b7a" font-weight="normal" text-anchor="start" font-family="Poppins, DejaVu Sans, sans-serif" >institución</text><rect x="1120" y="1394" width="26" height="6" rx="3" fill="#dd2e26"/><text x="1154" y="1402" font-size="10" fill="#6b6b7a" font-weight="normal" text-anchor="start" font-family="Poppins, DejaVu Sans, sans-serif" >licencia</text><rect x="1250" y="1394" width="26" height="6" rx="3" fill="#2a2765"/><text x="1284" y="1402" font-size="10" fill="#6b6b7a" font-weight="normal" text-anchor="start" font-family="Poppins, DejaVu Sans, sans-serif" >facilitador</text><rect x="1380" y="1394" width="26" height="6" rx="3" fill="#c9a50e"/><text x="1414" y="1402" font-size="10" fill="#6b6b7a" font-weight="normal" text-anchor="start" font-family="Poppins, DejaVu Sans, sans-serif" >video</text><rect x="1510" y="1394" width="26" height="6" rx="3" fill="#12c2ec"/><text x="1544" y="1402" font-size="10" fill="#6b6b7a" font-weight="normal" text-anchor="start" font-family="Poppins, DejaVu Sans, sans-serif" >evento</text></svg>